<?xml version="1.0" encoding="UTF-8"?>
<svg version="1.1" xmlns="http://www.w3.org/2000/svg" width="168" height="157">
<path d="M0 0 C1.7265625 1.3203125 1.7265625 1.3203125 3.625 3.125 C5.65701195 4.88995486 5.65701195 4.88995486 8 6 C11.49757068 5.63183467 13.75941293 4.51902519 17 3 C18.32 5.97 19.64 8.94 21 12 C22.918125 11.938125 22.918125 11.938125 24.875 11.875 C27.0546875 11.8046875 27.0546875 11.8046875 29 12 C31 14 31 14 31.3125 16.9375 C31.09688641 24.29916415 28.61200621 31.63598905 25 38 C25.928125 38.433125 25.928125 38.433125 26.875 38.875 C29 40 29 40 31 42 C30.9375 43.875 30.9375 43.875 30 46 C27.75 48.0625 27.75 48.0625 25 50 C24.24847656 50.53109375 23.49695313 51.0621875 22.72265625 51.609375 C19.46481932 53.2733491 17.32055405 53.30727101 13.6875 53.1875 C12.08455078 53.14689453 12.08455078 53.14689453 10.44921875 53.10546875 C9.64097656 53.07066406 8.83273438 53.03585938 8 53 C7.57074219 54.15048828 7.57074219 54.15048828 7.1328125 55.32421875 C5.84950088 58.35548929 4.13320186 60.5112645 2 63 C-0.1875 62.9375 -0.1875 62.9375 -3 62 C-5.38627358 59.43314355 -8 56.61081552 -8 53 C-8.7734375 53.05800781 -9.546875 53.11601563 -10.34375 53.17578125 C-18.86308301 53.54481176 -23.40257046 52.05409696 -29.71875 46.484375 C-31 45 -31 45 -30.9375 42.5625 C-29.8388558 39.55953918 -28.39003469 38.08164312 -26 36 C-26.27714844 35.46890625 -26.55429687 34.9378125 -26.83984375 34.390625 C-27.38318359 33.33101562 -27.38318359 33.33101562 -27.9375 32.25 C-28.29714844 31.55390625 -28.65679687 30.8578125 -29.02734375 30.140625 C-30.8641235 26.09823423 -31.1152263 22.6790094 -31.0625 18.25 C-31.05347656 17.26515625 -31.04445312 16.2803125 -31.03515625 15.265625 C-31.02355469 14.51796875 -31.01195312 13.7703125 -31 13 C-28.59454362 11.79727181 -27.05003047 11.89928528 -24.375 11.9375 C-23.14910156 11.95103516 -23.14910156 11.95103516 -21.8984375 11.96484375 C-20.95871094 11.98224609 -20.95871094 11.98224609 -20 12 C-19.896875 11.071875 -19.79375 10.14375 -19.6875 9.1875 C-18.9929808 5.96745642 -18.52259061 4.97420135 -16 3 C-13 4 -10 5 -7 6 C-6.34 5.01 -5.68 4.02 -5 3 C-4.34 3 -3.68 3 -3 3 C-3 2.34 -3 1.68 -3 1 C-2.01 0.67 -1.02 0.34 0 0 Z M-1 8 C-4.72879688 13.22316204 -7.95659216 18.41286058 -8 25 C-6.67953138 30.21278019 -4.53949715 34.91883838 -1 39 C-0.34 39 0.32 39 1 39 C2.33169242 37.31493318 2.33169242 37.31493318 3.5625 35.1875 C3.99691406 34.47980469 4.43132812 33.77210937 4.87890625 33.04296875 C7.69146796 27.91763853 7.80068786 22.84181961 6.24609375 17.32421875 C4.59250978 12.23394528 4.59250978 12.23394528 0.859375 8.7109375 C0.24578125 8.47632813 -0.3678125 8.24171875 -1 8 Z M-14 11 C-14 12.32 -14 13.64 -14 15 C-13.01 15 -12.02 15 -11 15 C-11 13.68 -11 12.36 -11 11 C-11.99 11 -12.98 11 -14 11 Z M11 11 C10.67 11.66 10.34 12.32 10 13 C10.33 13.66 10.66 14.32 11 15 C12.32 14.34 13.64 13.68 15 13 C13.68 12.34 12.36 11.68 11 11 Z M-26 18 C-25.41791932 24.98496819 -23.47740421 31.12998084 -18.0625 35.875 C-15.34683836 37.75933665 -13.18051555 39.1404012 -10 40 C-9.01 39.67 -8.02 39.34 -7 39 C-7.61875 38.071875 -8.2375 37.14375 -8.875 36.1875 C-11.62876006 31.44165819 -12.2619745 26.37010661 -13 21 C-14.41396902 20.49242138 -15.83131729 19.99425075 -17.25 19.5 C-18.03890625 19.2215625 -18.8278125 18.943125 -19.640625 18.65625 C-22.23412738 17.82135139 -22.23412738 17.82135139 -26 18 Z M13 21 C11.7832755 24.2534155 11.17389553 27.39165331 10.5859375 30.8125 C9.92349937 34.41616344 8.86476965 36.89205059 7 40 C13.18529813 39.41092399 17.00120746 37.10983657 21.25 32.625 C24.43768849 27.84346727 25.27141432 23.69970062 25 18 C18.52865019 17.98710081 18.52865019 17.98710081 13 21 Z M-22 41 C-22.99 42.485 -22.99 42.485 -24 44 C-20.33899354 47.66100646 -15.97142313 47.96161063 -11 48 C-10.34 47.67 -9.68 47.34 -9 47 C-9 46.34 -9 45.68 -9 45 C-10.7902061 44.32942113 -12.58221489 43.6636531 -14.375 43 C-15.37273437 42.62875 -16.37046875 42.2575 -17.3984375 41.875 C-19.85848061 40.89373723 -19.85848061 40.89373723 -22 41 Z M14.4375 43 C13.42558594 43.37125 12.41367188 43.7425 11.37109375 44.125 C10.58863281 44.41375 9.80617187 44.7025 9 45 C9 45.66 9 46.32 9 47 C13.79020574 48.00846437 16.67993022 48.58033208 21 46.0625 C21.99 45.381875 22.98 44.70125 24 44 C23.02149805 42.97895449 22.02019573 41.9793879 21 41 C18.79341906 41 16.46909637 42.25274616 14.4375 43 Z M-1 48 C-1.66 48.66 -2.32 49.32 -3 50 C-2.63318342 52.93453261 -2.13562754 53.86437246 0 56 C0.99 54.35 1.98 52.7 3 51 C2.34 50.01 1.68 49.02 1 48 C0.34 48 -0.32 48 -1 48 Z " fill="#6D7E87" transform="translate(84,32)"/>
<path d="M0 0 C2.55768219 0.66499737 3.5640688 0.7023406 5.953125 -0.4921875 C7.99367505 -0.56284367 10.03646757 -0.57640726 12.078125 -0.5546875 C14.98625 -0.52375 14.98625 -0.52375 17.953125 -0.4921875 C17.953125 4.7878125 17.953125 10.0678125 17.953125 15.5078125 C5.42524038 15.87992788 5.42524038 15.87992788 3.03515625 13.99609375 C2.49955078 13.25939453 2.49955078 13.25939453 1.953125 12.5078125 C1.623125 14.8178125 1.293125 17.1278125 0.953125 19.5078125 C-0.036875 19.8378125 -1.026875 20.1678125 -2.046875 20.5078125 C-2.046875 21.1678125 -2.046875 21.8278125 -2.046875 22.5078125 C-10.13576389 22.97447917 -10.13576389 22.97447917 -13.609375 21.1953125 C-15.046875 19.5078125 -15.046875 19.5078125 -15.046875 16.5078125 C-14.386875 15.8478125 -13.726875 15.1878125 -13.046875 14.5078125 C-13.706875 13.8478125 -14.366875 13.1878125 -15.046875 12.5078125 C-15.459375 12.9821875 -15.871875 13.4565625 -16.296875 13.9453125 C-18.36869771 15.7951542 -19.27942367 16.27719156 -22.046875 16.5078125 C-28.49131944 15.06336806 -28.49131944 15.06336806 -31.046875 12.5078125 C-31.671875 9.8828125 -31.671875 9.8828125 -32.046875 7.5078125 C-32.46839844 8.50683594 -32.88992187 9.50585938 -33.32421875 10.53515625 C-33.87747717 11.83859558 -34.43086951 13.14197807 -34.984375 14.4453125 C-35.26216797 15.10466797 -35.53996094 15.76402344 -35.82617188 16.44335938 C-37.93359375 21.39453125 -37.93359375 21.39453125 -39.046875 22.5078125 C-40.71304615 22.54845082 -42.38075595 22.5505335 -44.046875 22.5078125 C-43.92828125 21.81816406 -43.8096875 21.12851563 -43.6875 20.41796875 C-42.81829347 14.08145315 -43.07084674 10.03648834 -46.13671875 4.3828125 C-47.046875 2.5078125 -47.046875 2.5078125 -47.046875 -0.4921875 C-45.066875 -0.4921875 -43.086875 -0.4921875 -41.046875 -0.4921875 C-40.386875 1.4878125 -39.726875 3.4678125 -39.046875 5.5078125 C-38.386875 4.5178125 -37.726875 3.5278125 -37.046875 2.5078125 C-36.386875 1.5178125 -35.726875 0.5278125 -35.046875 -0.4921875 C-32.421875 -0.6796875 -32.421875 -0.6796875 -30.046875 -0.4921875 C-29.716875 0.1678125 -29.386875 0.8278125 -29.046875 1.5078125 C-28.056875 0.8478125 -27.066875 0.1878125 -26.046875 -0.4921875 C-21.97196748 -0.83176313 -20.51686229 -0.80551236 -17.046875 1.5078125 C-14.58232407 1.16787444 -12.64051526 0.3282582 -10.359375 -0.6796875 C-6.38405779 -1.65476531 -3.88715877 -1.04450865 0 0 Z M-25.046875 4.5078125 C-25.376875 6.1578125 -25.706875 7.8078125 -26.046875 9.5078125 C-23.571875 10.0028125 -23.571875 10.0028125 -21.046875 10.5078125 C-20.716875 9.5178125 -20.386875 8.5278125 -20.046875 7.5078125 C-20.706875 6.5178125 -21.366875 5.5278125 -22.046875 4.5078125 C-23.036875 4.5078125 -24.026875 4.5078125 -25.046875 4.5078125 Z M-9.046875 4.5078125 C-9.376875 6.1578125 -9.706875 7.8078125 -10.046875 9.5078125 C-7.571875 10.0028125 -7.571875 10.0028125 -5.046875 10.5078125 C-4.3653927 8.61602047 -4.3653927 8.61602047 -4.046875 6.5078125 C-4.706875 5.8478125 -5.366875 5.1878125 -6.046875 4.5078125 C-7.036875 4.5078125 -8.026875 4.5078125 -9.046875 4.5078125 Z M8.953125 4.5078125 C7.963125 5.0028125 7.963125 5.0028125 6.953125 5.5078125 C7.283125 7.1578125 7.613125 8.8078125 7.953125 10.5078125 C9.273125 10.1778125 10.593125 9.8478125 11.953125 9.5078125 C11.953125 8.1878125 11.953125 6.8678125 11.953125 5.5078125 C10.963125 5.1778125 9.973125 4.8478125 8.953125 4.5078125 Z M-8.046875 15.5078125 C-8.046875 16.4978125 -8.046875 17.4878125 -8.046875 18.5078125 C-6.726875 17.8478125 -5.406875 17.1878125 -4.046875 16.5078125 C-5.366875 16.1778125 -6.686875 15.8478125 -8.046875 15.5078125 Z " fill="#7F979A" transform="translate(83.046875,101.4921875)"/>
<path d="M0 0 C0.99 0.33 1.98 0.66 3 1 C2.44570312 1.88300781 1.89140625 2.76601563 1.3203125 3.67578125 C-3.14408024 10.99697576 -6.28769317 17.27424132 -7 26 C-8.32 26 -9.64 26 -11 26 C-11.33 23.69 -11.66 21.38 -12 19 C-15.96 18.01 -19.92 17.02 -24 16 C-20.96179745 27.23125996 -20.96179745 27.23125996 -13 35 C-10.04123028 36.45028221 -7.06159579 37.78216523 -4 39 C-4.7425 37.6696875 -4.7425 37.6696875 -5.5 36.3125 C-6.94378674 33.12413762 -7.30159922 31.41812454 -7 28 C-6.01 28.33 -5.02 28.66 -4 29 C-4 29.99 -4 30.98 -4 32 C-3.401875 32.268125 -2.80375 32.53625 -2.1875 32.8125 C-0.02775192 33.98493467 1.35790256 35.19369282 3 37 C3.2475 36.2575 3.495 35.515 3.75 34.75 C5 32 5 32 7.0546875 30.234375 C9.66448967 27.2367709 9.47390826 25.42036367 9.375 21.5 C9.36210938 20.3759375 9.34921875 19.251875 9.3359375 18.09375 C9.01636124 15.15067559 8.39759132 13.54315797 7 11 C7.375 8.75 7.375 8.75 8 7 C9.32 7 10.64 7 12 7 C12 6.34 12 5.68 12 5 C12.99 5.33 13.98 5.66 15 6 C14.34 6 13.68 6 13 6 C11.84225351 10.63098598 10.80781811 16.61563621 13 21 C13.71494763 28.14947627 11.23342217 32.8093969 7.25 38.5 C6.8375 38.995 6.425 39.49 6 40 C8.64 39.67 11.28 39.34 14 39 C11.60490662 41.89932357 9.68754757 42.50168276 6 43 C6 43.66 6 44.32 6 45 C3.03 45.66 0.06 46.32 -3 47 C-2.505 47.928125 -2.01 48.85625 -1.5 49.8125 C0 53 0 53 0 56 C1.32 56 2.64 56 4 56 C3.67 57.32 3.34 58.64 3 60 C-0.81936528 58.44396229 -3.26044438 56.04395069 -6 53 C-6 52.34 -6 51.68 -6 51 C-6.7734375 51.05800781 -7.546875 51.11601563 -8.34375 51.17578125 C-16.86308301 51.54481176 -21.40257046 50.05409696 -27.71875 44.484375 C-29 43 -29 43 -28.9375 40.5625 C-27.8388558 37.55953918 -26.39003469 36.08164312 -24 34 C-24.7115625 32.1746875 -24.7115625 32.1746875 -25.4375 30.3125 C-27.46545278 24.32429981 -27.71868388 18.27625974 -28 12 C-24.7 11.67 -21.4 11.34 -18 11 C-17.67 10.01 -17.34 9.02 -17 8 C-16.01 7.67 -15.02 7.34 -14 7 C-14.33 9.31 -14.66 11.62 -15 14 C-12.69 14.33 -10.38 14.66 -8 15 C-7.67 13.02 -7.34 11.04 -7 9 C-7.598125 8.731875 -8.19625 8.46375 -8.8125 8.1875 C-11 7 -11 7 -14 4 C-10.7 4.33 -7.4 4.66 -4 5 C-3.34 4.01 -2.68 3.02 -2 2 C-1.34 2 -0.68 2 0 2 C0 1.34 0 0.68 0 0 Z M-20 39 C-20.99 40.485 -20.99 40.485 -22 42 C-18.33899354 45.66100646 -13.97142313 45.96161063 -9 46 C-8.34 45.67 -7.68 45.34 -7 45 C-7 44.34 -7 43.68 -7 43 C-8.7902061 42.32942113 -10.58221489 41.6636531 -12.375 41 C-13.37273437 40.62875 -14.37046875 40.2575 -15.3984375 39.875 C-17.85848061 38.89373723 -17.85848061 38.89373723 -20 39 Z " fill="#64717B" transform="translate(82,34)"/>
<path d="M0 0 C1.67542976 0.28604898 3.34385343 0.61781233 5 1 C5.33 2.98 5.66 4.96 6 7 C6.99 6.34 7.98 5.68 9 5 C12.35316337 4.73597139 15.63058658 4.91248277 19 5 C19.33 8.3 19.66 11.6 20 15 C20.99 15.33 21.98 15.66 23 16 C22.98839844 15.28972656 22.97679688 14.57945313 22.96484375 13.84765625 C22.95582031 12.92855469 22.94679688 12.00945312 22.9375 11.0625 C22.92589844 10.14597656 22.91429688 9.22945312 22.90234375 8.28515625 C23 6 23 6 24 5 C25.65 5 27.3 5 29 5 C29 9.95 29 14.9 29 20 C18.28571429 22.14285714 18.28571429 22.14285714 14 20 C13.34 20.66 12.68 21.32 12 22 C10.02 21.34 8.04 20.68 6 20 C5.67 20.33 5.34 20.66 5 21 C2.5 21.125 2.5 21.125 0 21 C-1.55606751 19.44393249 -1.12970769 17.94042629 -1.1328125 15.78125 C-1.13410156 14.93175781 -1.13539062 14.08226563 -1.13671875 13.20703125 C-1.13285156 12.31371094 -1.12898438 11.42039062 -1.125 10.5 C-1.12886719 9.60667969 -1.13273437 8.71335937 -1.13671875 7.79296875 C-1.13542969 6.94347656 -1.13414063 6.09398438 -1.1328125 5.21875 C-1.13168457 4.43435547 -1.13055664 3.64996094 -1.12939453 2.84179688 C-1 1 -1 1 0 0 Z M12 8 C10.61061923 9.96147874 9.2739589 11.96166576 8 14 C9.98 15.65 11.96 17.3 14 19 C14 15.37 14 11.74 14 8 C13.34 8 12.68 8 12 8 Z " fill="#789093" transform="translate(103,96)"/>
<path d="M0 0 C1.7265625 1.3203125 1.7265625 1.3203125 3.625 3.125 C5.65701195 4.88995486 5.65701195 4.88995486 8 6 C11.49757068 5.63183467 13.75941293 4.51902519 17 3 C18.32 5.97 19.64 8.94 21 12 C23.64 12 26.28 12 29 12 C29.495 12.99 29.495 12.99 30 14 C26.37 14 22.74 14 19 14 C18.505 12.515 18.505 12.515 18 11 C17.34 10.67 16.68 10.34 16 10 C16 11.65 16 13.3 16 15 C15.5875 14.484375 15.175 13.96875 14.75 13.4375 C14.1725 12.963125 13.595 12.48875 13 12 C10.83700789 12.22757731 10.83700789 12.22757731 9 13 C9.66 11.35 10.32 9.7 11 8 C10.67 8.33 10.34 8.66 10 9 C8.67405895 9.36162029 7.34061543 9.69728039 6 10 C6.65585189 13.60992379 6.65585189 13.60992379 8 17 C8.07092842 19.2072923 8.08415025 21.41667452 8.0625 23.625 C8.05347656 24.81351563 8.04445312 26.00203125 8.03515625 27.2265625 C8.02355469 28.14179687 8.01195312 29.05703125 8 30 C7.01 30.495 7.01 30.495 6 31 C6.04640625 30.32195313 6.0928125 29.64390625 6.140625 28.9453125 C6.40872424 22.03218221 5.69269503 16.0021732 2 10 C1.01 9.67 0.02 9.34 -1 9 C-1.680625 10.4540625 -1.680625 10.4540625 -2.375 11.9375 C-4 15 -4 15 -6 16 C-7.32327128 21.16502659 -7.2181679 25.14775771 -5 30 C-5.375 32.3125 -5.375 32.3125 -6 34 C-6 33.01 -6 32.02 -6 31 C-6.66 31 -7.32 31 -8 31 C-7.46274105 34.37705625 -6.88935377 37.696686 -6 41 C-8.50612166 39.74693917 -8.88384342 38.66521628 -10.125 36.1875 C-10.47820312 35.50042969 -10.83140625 34.81335938 -11.1953125 34.10546875 C-12 32 -12 32 -12 28 C-11.01 28 -10.02 28 -9 28 C-9.12375 26.9275 -9.2475 25.855 -9.375 24.75 C-9.41746664 16.80873837 -3.99816813 9.56756147 0 3 C-0.66 2.67 -1.32 2.34 -2 2 C-2 2.66 -2 3.32 -2 4 C-2.66 4 -3.32 4 -4 4 C-4.66 5.32 -5.32 6.64 -6 8 C-8.97 7.67 -11.94 7.34 -15 7 C-13.02 8.32 -11.04 9.64 -9 11 C-9.33 12.98 -9.66 14.96 -10 17 C-12.31 16.67 -14.62 16.34 -17 16 C-17 14.02 -17 12.04 -17 10 C-17.66 10 -18.32 10 -19 10 C-19.33 11.32 -19.66 12.64 -20 14 C-23.3 14 -26.6 14 -30 14 C-29.7168444 16.08450717 -29.42314331 18.16758367 -29.125 20.25 C-28.96257813 21.41015625 -28.80015625 22.5703125 -28.6328125 23.765625 C-28.16821475 26.91983754 -28.16821475 26.91983754 -26.8671875 29.234375 C-26 31 -26 31 -27 34 C-29.92792193 28.39875805 -31.13758636 24.55725418 -31.0625 18.25 C-31.05347656 17.26515625 -31.04445312 16.2803125 -31.03515625 15.265625 C-31.02355469 14.51796875 -31.01195312 13.7703125 -31 13 C-28.59454362 11.79727181 -27.05003047 11.89928528 -24.375 11.9375 C-23.14910156 11.95103516 -23.14910156 11.95103516 -21.8984375 11.96484375 C-20.95871094 11.98224609 -20.95871094 11.98224609 -20 12 C-19.896875 11.071875 -19.79375 10.14375 -19.6875 9.1875 C-18.9929808 5.96745642 -18.52259061 4.97420135 -16 3 C-13 4 -10 5 -7 6 C-6.34 5.01 -5.68 4.02 -5 3 C-4.34 3 -3.68 3 -3 3 C-3 2.34 -3 1.68 -3 1 C-2.01 0.67 -1.02 0.34 0 0 Z M-14 11 C-14 12.32 -14 13.64 -14 15 C-13.01 15 -12.02 15 -11 15 C-11 13.68 -11 12.36 -11 11 C-11.99 11 -12.98 11 -14 11 Z " fill="#859B9D" transform="translate(84,32)"/>
<path d="M0 0 C0.99 0.33 1.98 0.66 3 1 C2.34 1 1.68 1 1 1 C-0.15774649 5.63098598 -1.19218189 11.61563621 1 16 C1.71494763 23.14947627 -0.76657783 27.8093969 -4.75 33.5 C-5.1625 33.995 -5.575 34.49 -6 35 C-3.36 34.67 -0.72 34.34 2 34 C-0.39509338 36.89932357 -2.31245243 37.50168276 -6 38 C-6 38.66 -6 39.32 -6 40 C-8.97 40.66 -11.94 41.32 -15 42 C-14.505 42.928125 -14.01 43.85625 -13.5 44.8125 C-12 48 -12 48 -12 51 C-10.68 51 -9.36 51 -8 51 C-8.33 52.32 -8.66 53.64 -9 55 C-12.40636923 53.5904679 -14.23944644 52.26959946 -16 49 C-17.5794155 41.158831 -17.5794155 41.158831 -16 38 C-17.98 37.67 -19.96 37.34 -22 37 C-22.495 35.515 -22.495 35.515 -23 34 C-19.53058454 34.45822468 -16.32604951 34.89131683 -13 36 C-8.1108471 34.43123637 -6.45942023 30.54543064 -4.203125 26.2265625 C-2.20958266 20.88024442 -2.19930746 15.61254674 -3 10 C-3.63542069 8.6514961 -4.29516498 7.31355617 -5 6 C-4.625 3.75 -4.625 3.75 -4 2 C-2.68 2 -1.36 2 0 2 C0 1.34 0 0.68 0 0 Z " fill="#464A5A" transform="translate(94,39)"/>
<path d="M0 0 C1.07894531 0.04640625 2.15789062 0.0928125 3.26953125 0.140625 C6.14671875 0.264375 6.14671875 0.264375 9.08203125 0.390625 C9.08203125 5.670625 9.08203125 10.950625 9.08203125 16.390625 C4.79203125 16.390625 0.50203125 16.390625 -3.91796875 16.390625 C-6.21045887 11.80564476 -6.21045887 11.80564476 -6.23046875 8.390625 C-6.24722656 7.730625 -6.26398438 7.070625 -6.28125 6.390625 C-5.54335902 2.32825745 -4.13189319 0.55313162 0 0 Z M0.08203125 5.390625 C-0.90796875 5.885625 -0.90796875 5.885625 -1.91796875 6.390625 C-1.58796875 8.040625 -1.25796875 9.690625 -0.91796875 11.390625 C0.40203125 11.060625 1.72203125 10.730625 3.08203125 10.390625 C3.08203125 9.070625 3.08203125 7.750625 3.08203125 6.390625 C2.09203125 6.060625 1.10203125 5.730625 0.08203125 5.390625 Z " fill="#47515D" transform="translate(91.91796875,100.609375)"/>
<path d="M0 0 C0.99 0.33 1.98 0.66 3 1 C3 3 3 3 1.5 4.625 C1.005 5.07875 0.51 5.5325 0 6 C1.32 6.33 2.64 6.66 4 7 C4 7.99 4 8.98 4 10 C8.50353262 11.75747614 12.17639811 12.19294408 17 12 C17 11.34 17 10.68 17 10 C17.99 10 18.98 10 20 10 C20.16834933 11.77067416 20.33461909 13.54154612 20.5 15.3125 C20.5928125 16.29863281 20.685625 17.28476563 20.78125 18.30078125 C21 21 21 21 21 24 C18 20.25 18 20.25 18 18 C17.2265625 18.05800781 16.453125 18.11601563 15.65625 18.17578125 C7.13691699 18.54481176 2.59742954 17.05409696 -3.71875 11.484375 C-5 10 -5 10 -4.9375 7.5625 C-3.83870402 4.55912433 -2.34958744 3.12220801 0 1 C0 0.67 0 0.34 0 0 Z " fill="#71858B" transform="translate(58,67)"/>
<path d="M0 0 C0.99 0.33 1.98 0.66 3 1 C3 1.99 3 2.98 3 4 C3.598125 4.268125 4.19625 4.53625 4.8125 4.8125 C6.97224808 5.98493467 8.35790256 7.19369282 10 9 C10.268125 8.236875 10.53625 7.47375 10.8125 6.6875 C11.94424112 4.12619116 12.91223401 2.80307062 15 1 C14.20779065 5.95130842 11.84390577 10.63024143 7.8125 13.625 C3.49096442 14.20120474 -0.02338563 12.6114385 -4 11 C-3.04134491 13.33075929 -3.04134491 13.33075929 0 15 C-4.97306516 14.50269348 -8.63799813 13.44697666 -13 11 C-13 9.35 -13 7.7 -13 6 C-12.34 6 -11.68 6 -11 6 C-11.66 4.68 -12.32 3.36 -13 2 C-12.43152344 2.39832031 -11.86304688 2.79664062 -11.27734375 3.20703125 C-6.64274107 6.38703409 -2.2500166 8.98935534 3 11 C2.505 10.113125 2.01 9.22625 1.5 8.3125 C0.05621326 5.12413762 -0.30159922 3.41812454 0 0 Z " fill="#6F7F88" transform="translate(75,62)"/>
<path d="M0 0 C1.98 0 3.96 0 6 0 C6.66 2.64 7.32 5.28 8 8 C8.45375 7.505 8.9075 7.01 9.375 6.5 C11 5 11 5 13 5 C12.41632234 9.78615682 10.92082833 13.59810173 9 18 C8.30859478 20.77888613 8.30859478 20.77888613 8 23 C6.35 23 4.7 23 3 23 C3.11859375 22.31035156 3.2371875 21.62070313 3.359375 20.91015625 C4.22858153 14.57364065 3.97602826 10.52867584 0.91015625 4.875 C0 3 0 3 0 0 Z " fill="#454B59" transform="translate(36,101)"/>
<path d="M0 0 C1.32 0 2.64 0 4 0 C4.33 3.3 4.66 6.6 5 10 C6.32 10.33 7.64 10.66 9 11 C10.66342837 9.33657163 10.36048097 7.2174291 10.5625 4.9375 C10.64628906 4.01839844 10.73007813 3.09929687 10.81640625 2.15234375 C10.87699219 1.44207031 10.93757813 0.73179688 11 0 C11.99 0 12.98 0 14 0 C14.33 4.62 14.66 9.24 15 14 C10.26456964 14.94708607 6.76544308 15.23436605 2 15 C0 13 0 13 -0.1953125 9.9609375 C-0.17210938 8.77757813 -0.14890625 7.59421875 -0.125 6.375 C-0.10695313 5.18648438 -0.08890625 3.99796875 -0.0703125 2.7734375 C-0.04710938 1.85820313 -0.02390625 0.94296875 0 0 Z " fill="#4A5661" transform="translate(117,102)"/>
<path d="M0 0 C2.64 0 5.28 0 8 0 C8.05404449 2.75026417 8.09369306 5.49946203 8.125 8.25 C8.15013672 9.41595703 8.15013672 9.41595703 8.17578125 10.60546875 C8.23662606 17.72431144 8.23662606 17.72431144 6 21 C-2.08888889 21.46666667 -2.08888889 21.46666667 -5.5625 19.6875 C-7 18 -7 18 -7 15 C-3.37 15.33 0.26 15.66 4 16 C4.10841951 14.08458862 4.18578079 12.16740227 4.25 10.25 C4.31960937 8.64898437 4.31960937 8.64898437 4.390625 7.015625 C3.91735478 3.36197888 2.80844958 2.27771895 0 0 Z " fill="#556269" transform="translate(75,103)"/>
<path d="M0 0 C0.99 0.33 1.98 0.66 3 1 C3 1.99 3 2.98 3 4 C6.96 4 10.92 4 15 4 C15.2396943 9.63281599 14.38529821 14.54538831 13 20 C11.35 20.33 9.7 20.66 8 21 C8.66 16.38 9.32 11.76 10 7 C5.38 7 0.76 7 -4 7 C-3.01 6.34 -2.02 5.68 -1 5 C-0.27034634 2.43717258 -0.27034634 2.43717258 0 0 Z " fill="#5D6C75" transform="translate(100,42)"/>
<path d="M0 0 C0.33 0.66 0.66 1.32 1 2 C1.78375 2.309375 2.5675 2.61875 3.375 2.9375 C5.99812099 3.99923945 7.39430522 4.68066309 9 7 C8.84762499 9.43800017 8.17726646 10.73876522 6.8125 12.75 C4.21312784 14.54267046 2.07660784 14.20510719 -1 14 C-0.34 13.67 0.32 13.34 1 13 C1 12.01 1 11.02 1 10 C1.66 10 2.32 10 3 10 C3 9.01 3 8.02 3 7 C-2.05009595 6.06213918 -2.05009595 6.06213918 -7 7 C-7.33 6.01 -7.66 5.02 -8 4 C-7.01 4 -6.02 4 -5 4 C-5 3.34 -5 2.68 -5 2 C-2 0 -2 0 0 0 Z " fill="#4B4F5F" transform="translate(106,67)"/>
<path d="M0 0 C2.0625 0.4375 2.0625 0.4375 4 1 C3.01 1 2.02 1 1 1 C1 7.27 1 13.54 1 20 C1.99 20 2.98 20 4 20 C4 18.68 4 17.36 4 16 C5.6875 15.3125 5.6875 15.3125 8 15 C12.63076923 17.26153846 12.63076923 17.26153846 14 20 C13.34 20.66 12.68 21.32 12 22 C10.02 21.34 8.04 20.68 6 20 C5.67 20.33 5.34 20.66 5 21 C2.5 21.125 2.5 21.125 0 21 C-1.55606751 19.44393249 -1.12970769 17.94042629 -1.1328125 15.78125 C-1.13410156 14.93175781 -1.13539062 14.08226563 -1.13671875 13.20703125 C-1.13285156 12.31371094 -1.12898438 11.42039062 -1.125 10.5 C-1.12886719 9.60667969 -1.13273437 8.71335937 -1.13671875 7.79296875 C-1.13542969 6.94347656 -1.13414063 6.09398438 -1.1328125 5.21875 C-1.13168457 4.43435547 -1.13055664 3.64996094 -1.12939453 2.84179688 C-1 1 -1 1 0 0 Z " fill="#778D91" transform="translate(103,96)"/>
<path d="M0 0 C0.94921875 1.84765625 0.94921875 1.84765625 1.6875 4.0625 C2.06455078 5.16271484 2.06455078 5.16271484 2.44921875 6.28515625 C2.63097656 6.85105469 2.81273438 7.41695312 3 8 C5.64 8 8.28 8 11 8 C11.33 8.66 11.66 9.32 12 10 C8.37 10 4.74 10 1 10 C0.67 9.01 0.34 8.02 0 7 C-0.66 6.67 -1.32 6.34 -2 6 C-2 7.65 -2 9.3 -2 11 C-2.61875 10.2265625 -2.61875 10.2265625 -3.25 9.4375 C-3.8275 8.963125 -4.405 8.48875 -5 8 C-7.16299211 8.22757731 -7.16299211 8.22757731 -9 9 C-8.649375 8.236875 -8.29875 7.47375 -7.9375 6.6875 C-6.67639116 3.95240621 -6.67639116 3.95240621 -8 1 C-3.375 -1.125 -3.375 -1.125 0 0 Z " fill="#7B8D93" transform="translate(102,36)"/>
<path d="M0 0 C0.99 0.33 1.98 0.66 3 1 C1.55041382 3.5054576 0.09101202 6.00418199 -1.375 8.5 C-1.7875 9.21542969 -2.2 9.93085937 -2.625 10.66796875 C-3.69451438 12.47924311 -4.8419038 14.24404186 -6 16 C-6.66 16 -7.32 16 -8 16 C-7.67 13.69 -7.34 11.38 -7 9 C-7.598125 8.731875 -8.19625 8.46375 -8.8125 8.1875 C-11 7 -11 7 -14 4 C-10.7 4.33 -7.4 4.66 -4 5 C-3.34 4.01 -2.68 3.02 -2 2 C-1.34 2 -0.68 2 0 2 C0 1.34 0 0.68 0 0 Z " fill="#444B5A" transform="translate(82,34)"/>
<path d="M0 0 C3.96 0 7.92 0 12 0 C12 5.28 12 10.56 12 16 C7.71 16 3.42 16 -1 16 C-1.33 15.34 -1.66 14.68 -2 14 C-0.39592672 13.97291433 1.2082785 13.95356517 2.8125 13.9375 C3.70582031 13.92589844 4.59914063 13.91429688 5.51953125 13.90234375 C8 14 8 14 11 15 C11 10.38 11 5.76 11 1 C10.01 1 9.02 1 8 1 C7.67 2.98 7.34 4.96 7 7 C4.03 6.505 4.03 6.505 1 6 C1.33 7.32 1.66 8.64 2 10 C3.65 9.67 5.3 9.34 7 9 C6.67 9.99 6.34 10.98 6 12 C4.33388095 12.042721 2.66617115 12.04063832 1 12 C0 11 0 11 -0.0625 7.9375 C-0.041875 6.968125 -0.02125 5.99875 0 5 C1.65 4.34 3.3 3.68 5 3 C5 2.34 5 1.68 5 1 C3.35 1 1.7 1 0 1 C0 0.67 0 0.34 0 0 Z " fill="#87A0A3" transform="translate(89,101)"/>
<path d="M0 0 C0.99 0 1.98 0 3 0 C4.40457737 2.80915474 4.24895157 4.88810534 4 8 C3 10.375 3 10.375 1 12 C-2.57577233 12.66300779 -5.75895557 12.65930485 -9 10.9375 C-10.52690415 7.97912322 -10.18468872 5.26283401 -10 2 C-9.01 1.67 -8.02 1.34 -7 1 C-6.34 3.64 -5.68 6.28 -5 9 C-3.35 9.33 -1.7 9.66 0 10 C0 6.7 0 3.4 0 0 Z " fill="#45515A" transform="translate(63,104)"/>
<path d="M0 0 C0.66 0 1.32 0 2 0 C2 0.66 2 1.32 2 2 C1.360625 2.61875 0.72125 3.2375 0.0625 3.875 C-2.03417231 6.03520783 -2.58396674 7.08776721 -3 10 C-3.66 10 -4.32 10 -5 10 C-5.86303969 15.35317859 -6.30465595 18.95856511 -4 24 C-4.375 26.3125 -4.375 26.3125 -5 28 C-5 27.01 -5 26.02 -5 25 C-5.66 25 -6.32 25 -7 25 C-6.46274105 28.37705625 -5.88935377 31.696686 -5 35 C-7.50612166 33.74693917 -7.88384342 32.66521628 -9.125 30.1875 C-9.65480469 29.15689453 -9.65480469 29.15689453 -10.1953125 28.10546875 C-11 26 -11 26 -11 22 C-10.01 22 -9.02 22 -8 22 C-8.12375 20.9275 -8.2475 19.855 -8.375 18.75 C-8.41970537 12.51360051 -5.10837206 7.23430527 -2 2 C-1.34 1.34 -0.68 0.68 0 0 Z " fill="#889DA1" transform="translate(83,38)"/>
<path d="M0 0 C1.875 1.5 1.875 1.5 3 3 C2.01 3 1.02 3 0 3 C0.185625 4.27875 0.37125 5.5575 0.5625 6.875 C1.125 10.75 1.125 10.75 0 13 C-2.375 13.1875 -2.375 13.1875 -5 13 C-6.97749439 10.03375841 -7.40230872 8.41537873 -8 5 C-8.33 4.01 -8.66 3.02 -9 2 C-5.53076119 -0.31282587 -4.07794425 -0.42478586 0 0 Z M-5 5 C-5.33 6.65 -5.66 8.3 -6 10 C-3.525 10.495 -3.525 10.495 -1 11 C-0.67 10.01 -0.34 9.02 0 8 C-0.66 7.01 -1.32 6.02 -2 5 C-2.99 5 -3.98 5 -5 5 Z " fill="#6F7E85" transform="translate(63,101)"/>
<path d="M0 0 C0.66 0.33 1.32 0.66 2 1 C1.34 1.66 0.68 2.32 0 3 C-0.3176246 4.91006306 -0.3176246 4.91006306 -0.25 7 C-0.25515625 7.70125 -0.2603125 8.4025 -0.265625 9.125 C-0.15705515 11.2435669 -0.15705515 11.2435669 2 13 C4.68839385 13.26991906 7.29141936 13.08737357 10 13 C9.67 14.65 9.34 16.3 9 18 C8.34 17.67 7.68 17.34 7 17 C7.33 16.67 7.66 16.34 8 16 C7.236875 16.20625 6.47375 16.4125 5.6875 16.625 C3 17 3 17 0 15 C-0.66 14.01 -1.32 13.02 -2 12 C-2.4125 12.474375 -2.825 12.94875 -3.25 13.4375 C-5.26393553 15.23565672 -6.33422873 15.68637985 -9 16 C-11.75 15.5625 -11.75 15.5625 -14 15 C-14 14.67 -14 14.34 -14 14 C-10.97265625 13.75585938 -10.97265625 13.75585938 -7.9453125 13.51171875 C-5.60480784 13.12606964 -5.60480784 13.12606964 -4 10 C-3.75944532 7.94290404 -3.75944532 7.94290404 -3.875 5.8125 C-3.936875 3.9253125 -3.936875 3.9253125 -4 2 C-2.125 0.9375 -2.125 0.9375 0 0 Z " fill="#8CA2A7" transform="translate(70,102)"/>
<path d="M0 0 C0.33 0.66 0.66 1.32 1 2 C3.97 1.34 6.94 0.68 10 0 C10 0.66 10 1.32 10 2 C9.01 2.495 9.01 2.495 8 3 C8 3.66 8 4.32 8 5 C8.99 4.34 9.98 3.68 11 3 C13.6875 3.375 13.6875 3.375 16 4 C15.01 4.33 14.02 4.66 13 5 C11.2984375 5.7734375 11.2984375 5.7734375 9.5625 6.5625 C6 8 6 8 2 8 C2 8.66 2 9.32 2 10 C1.01 10 0.02 10 -1 10 C-1 9.01 -1 8.02 -1 7 C0.65 6.34 2.3 5.68 4 5 C1.69 5 -0.62 5 -3 5 C-1.125 1.125 -1.125 1.125 0 0 Z " fill="#78878F" transform="translate(91,69)"/>
<path d="M0 0 C6 4 6 4 12 8 C11.01 8.33 10.02 8.66 9 9 C9.95865509 11.33075929 9.95865509 11.33075929 13 13 C8.02693484 12.50269348 4.36200187 11.44697666 0 9 C0 7.35 0 5.7 0 4 C0.66 4 1.32 4 2 4 C1.34 2.68 0.68 1.36 0 0 Z " fill="#6D7D85" transform="translate(62,64)"/>
<path d="M0 0 C1.33332095 2.6666419 0.67102033 4.16680303 0 7 C0.66 7 1.32 7 2 7 C2 7.66 2 8.32 2 9 C0.56208484 8.85831863 -0.8753237 8.71148957 -2.3125 8.5625 C-3.11300781 8.48128906 -3.91351563 8.40007813 -4.73828125 8.31640625 C-7 8 -7 8 -10 7 C-10.33 9.31 -10.66 11.62 -11 14 C-13 12 -13 12 -13.125 8.375 C-13.08375 7.26125 -13.0425 6.1475 -13 5 C-9.7 4.67 -6.4 4.34 -3 4 C-2.67 3.01 -2.34 2.02 -2 1 C-1.34 0.67 -0.68 0.34 0 0 Z " fill="#424957" transform="translate(67,41)"/>
<path d="M0 0 C2.46800047 1.15173355 4.04783565 2.04783565 6 4 C7.32 4 8.64 4 10 4 C10 4.66 10 5.32 10 6 C8.68 6.33 7.36 6.66 6 7 C6.65585189 10.60992379 6.65585189 10.60992379 8 14 C8.07092842 16.2072923 8.08415025 18.41667452 8.0625 20.625 C8.05347656 21.81351563 8.04445313 23.00203125 8.03515625 24.2265625 C8.02355469 25.14179687 8.01195313 26.05703125 8 27 C7.34 27.33 6.68 27.66 6 28 C6.04640625 27.32195313 6.0928125 26.64390625 6.140625 25.9453125 C6.38662416 19.60204844 5.62619632 14.9645203 2.97265625 9.19140625 C2.05850188 7.13180544 1.47545325 5.19709451 1 3 C0.34 3 -0.32 3 -1 3 C-0.67 2.01 -0.34 1.02 0 0 Z " fill="#6C7D83" transform="translate(84,35)"/>
<path d="M0 0 C0.66 0 1.32 0 2 0 C2 0.99 2 1.98 2 3 C1.34 3 0.68 3 0 3 C0 3.99 0 4.98 0 6 C0.66 6.66 1.32 7.32 2 8 C-1.92826365 10.77675038 -4.53124892 11.34512366 -9.3125 11.1875 C-10.91544922 11.14689453 -10.91544922 11.14689453 -12.55078125 11.10546875 C-13.76314453 11.05326172 -13.76314453 11.05326172 -15 11 C-15 10.67 -15 10.34 -15 10 C-12.03 10 -9.06 10 -6 10 C-6 9.34 -6 8.68 -6 8 C-8.64 7.34 -11.28 6.68 -14 6 C-11.42144702 5.14048234 -9.65184643 4.86328527 -7 4.6875 C-3.60461821 4.33526417 -3.60461821 4.33526417 -1.125 1.9375 C-0.75375 1.298125 -0.3825 0.65875 0 0 Z " fill="#778E93" transform="translate(107,74)"/>
<path d="M0 0 C1.98 0 3.96 0 6 0 C6.99 3.3 7.98 6.6 9 10 C8.34 10 7.68 10 7 10 C6.67 9.34 6.34 8.68 6 8 C5.34 9.32 4.68 10.64 4 12 C3.32645501 10.56570999 2.66140299 9.12742943 2 7.6875 C1.62875 6.88699219 1.2575 6.08648437 0.875 5.26171875 C0 3 0 3 0 0 Z " fill="#7F9498" transform="translate(36,101)"/>
<path d="M0 0 C3.68465905 3.28987415 5.77894182 6.63720714 8 11 C8 14 8 14 6 17 C4.68 17 3.36 17 2 17 C2.33 16.01 2.66 15.02 3 14 C3.66 14 4.32 14 5 14 C4.54625 13.62875 4.0925 13.2575 3.625 12.875 C0.3792013 9.12984765 -0.28435386 4.83401567 0 0 Z " fill="#434C5A" transform="translate(56,56)"/>
<path d="M0 0 C0.99 0.33 1.98 0.66 3 1 C3 1.99 3 2.98 3 4 C6.63 4 10.26 4 14 4 C13.34 5.65 12.68 7.3 12 9 C11.67 8.01 11.34 7.02 11 6 C10.12988281 6.10828125 10.12988281 6.10828125 9.2421875 6.21875 C4.79912426 6.7466387 0.48368422 7.11496626 -4 7 C-3.01 6.34 -2.02 5.68 -1 5 C-0.27034634 2.43717258 -0.27034634 2.43717258 0 0 Z " fill="#414758" transform="translate(100,42)"/>
<path d="M0 0 C1.32 0.33 2.64 0.66 4 1 C2.125 6.75 2.125 6.75 1 9 C2.32 8.67 3.64 8.34 5 8 C3.92598892 10.91517292 3.22189824 12.77810176 1 15 C-1.625 14.625 -1.625 14.625 -4 14 C-4 13.01 -4 12.02 -4 11 C-2.68 11.66 -1.36 12.32 0 13 C0.33 12.01 0.66 11.02 1 10 C-0.32 10 -1.64 10 -3 10 C-3.33 8.35 -3.66 6.7 -4 5 C-2.515 5.99 -2.515 5.99 -1 7 C0.10636395 4.60931266 0.10636395 4.60931266 1 2 C0.67 1.34 0.34 0.68 0 0 Z " fill="#83999D" transform="translate(85,80)"/>
<path d="M0 0 C4 0 4 0 6 1 C5.34 1.66 4.68 2.32 4 3 C3.75712511 5.44012949 3.75712511 5.44012949 3.875 8.125 C3.89304687 9.03507812 3.91109375 9.94515625 3.9296875 10.8828125 C3.95289062 11.58148438 3.97609375 12.28015625 4 13 C3.34 12.67 2.68 12.34 2 12 C1.67 14.31 1.34 16.62 1 19 C0.01 19 -0.98 19 -2 19 C-1.67 18.67 -1.34 18.34 -1 18 C-0.84417697 16.65984779 -0.74955858 15.31241097 -0.68359375 13.96484375 C-0.62075195 12.75151367 -0.62075195 12.75151367 -0.55664062 11.51367188 C-0.51732422 10.66353516 -0.47800781 9.81339844 -0.4375 8.9375 C-0.39431641 8.08349609 -0.35113281 7.22949219 -0.30664062 6.34960938 C-0.20023298 4.23327963 -0.09958269 2.11666187 0 0 Z " fill="#94ADAE" transform="translate(83,102)"/>
<path d="M0 0 C0.66 0.33 1.32 0.66 2 1 C1.814375 1.94875 1.62875 2.8975 1.4375 3.875 C0.71313368 6.89868793 0.71313368 6.89868793 2 9 C4.02463255 9.65213292 4.02463255 9.65213292 6 10 C6 10.66 6 11.32 6 12 C0.66666667 12.35555556 0.66666667 12.35555556 -1.875 11 C-3.70488947 7.74686316 -3.18128355 4.68609891 -3 1 C-2.01 0.67 -1.02 0.34 0 0 Z " fill="#464F59" transform="translate(72,104)"/>
<path d="M0 0 C0.66 0 1.32 0 2 0 C2 3.3 2 6.6 2 10 C2.99 10 3.98 10 5 10 C5 10.66 5 11.32 5 12 C4.01 12 3.02 12 2 12 C2 13.98 2 15.96 2 18 C1.34 18 0.68 18 0 18 C0 12.06 0 6.12 0 0 Z " fill="#3F4456" transform="translate(104,98)"/>
<path d="M0 0 C0.99 0 1.98 0 3 0 C3.16834933 1.77067416 3.33461909 3.54154612 3.5 5.3125 C3.5928125 6.29863281 3.685625 7.28476563 3.78125 8.30078125 C4 11 4 11 4 14 C1 10.25 1 10.25 1 8 C-2.96 8 -6.92 8 -11 8 C-11 7.67 -11 7.34 -11 7 C-5.06 6.505 -5.06 6.505 1 6 C1 5.01 1 4.02 1 3 C0.01 2.67 -0.98 2.34 -2 2 C-1.34 2 -0.68 2 0 2 C0 1.34 0 0.68 0 0 Z " fill="#80989C" transform="translate(75,77)"/>
<path d="M0 0 C2.64 0 5.28 0 8 0 C7.88570603 1.77155654 7.75816963 3.54226229 7.625 5.3125 C7.55539063 6.29863281 7.48578125 7.28476563 7.4140625 8.30078125 C7 11 7 11 5 14 C4.855625 13.113125 4.71125 12.22625 4.5625 11.3125 C4.376875 10.219375 4.19125 9.12625 4 8 C3.87625 7.113125 3.7525 6.22625 3.625 5.3125 C2.92368356 2.71762917 2.04654451 1.69062373 0 0 Z " fill="#464659" transform="translate(75,103)"/>
<path d="M0 0 C0.33 0.66 0.66 1.32 1 2 C0.06553465 4.03144641 -0.93224776 6.03533587 -2 8 C-2.99 7.67 -3.98 7.34 -5 7 C-5 6.34 -5 5.68 -5 5 C-6.65 5.66 -8.3 6.32 -10 7 C-6.87378374 3.60582235 -4.43458973 1.3937282 0 0 Z " fill="#6D7A82" transform="translate(111,62)"/>
<path d="M0 0 C0.99 0 1.98 0 3 0 C3.07654536 4.51617599 3.10228696 8.59085217 2 13 C1.01 12.67 0.02 12.34 -1 12 C-0.67 8.04 -0.34 4.08 0 0 Z " fill="#414A56" transform="translate(128,102)"/>
<path d="M0 0 C0.66 0.33 1.32 0.66 2 1 C1.52304688 1.4021875 1.04609375 1.804375 0.5546875 2.21875 C-1.31933823 4.36587496 -1.49323117 5.70656954 -1.875 8.5 C-2.53239826 11.80854536 -2.72100385 12.73650363 -5.25 15.125 C-8.55778877 16.17747824 -10.66831202 15.85229227 -14 15 C-14 14.67 -14 14.34 -14 14 C-10.97265625 13.75585938 -10.97265625 13.75585938 -7.9453125 13.51171875 C-5.60480784 13.12606964 -5.60480784 13.12606964 -4 10 C-3.75944532 7.94290404 -3.75944532 7.94290404 -3.875 5.8125 C-3.936875 3.9253125 -3.936875 3.9253125 -4 2 C-2.125 0.9375 -2.125 0.9375 0 0 Z " fill="#8EB2AA" transform="translate(70,102)"/>
<path d="M0 0 C0 0.66 0 1.32 0 2 C-0.928125 2.144375 -1.85625 2.28875 -2.8125 2.4375 C-6.00725111 2.92100111 -6.00725111 2.92100111 -9 4 C-11.1875 3.5625 -11.1875 3.5625 -13 3 C-11 0 -11 0 -9.3125 -0.75 C-6.09886176 -1.09742035 -3.17025463 -0.54869792 0 0 Z " fill="#6E7F83" transform="translate(83,101)"/>
<path d="M0 0 C0 0.99 0 1.98 0 3 C-3.21451269 4.60725635 -6.43612536 4.05748185 -10 4 C-10.33 3.01 -10.66 2.02 -11 1 C-3.375 0 -3.375 0 0 0 Z " fill="#404654" transform="translate(76,80)"/>
<path d="M0 0 C3.6875 0.875 3.6875 0.875 7 2 C7 3.32 7 4.64 7 6 C3.04179141 5.43454163 0.3340947 4.19097652 -3 2 C-2.01 1.34 -1.02 0.68 0 0 Z " fill="#5B6871" transform="translate(59,78)"/>
<path d="M0 0 C0.66 0.66 1.32 1.32 2 2 C0.85805571 4.80063432 -0.32801232 7.47332213 -2 10 C-4.75 11 -4.75 11 -7 11 C-5.68 8.36 -4.36 5.72 -3 3 C-2.01 3.33 -1.02 3.66 0 4 C0 2.68 0 1.36 0 0 Z " fill="#49535E" transform="translate(93,60)"/>
<path d="M0 0 C1.0625 1.8125 1.0625 1.8125 2 4 C1.67 4.99 1.34 5.98 1 7 C-0.95803507 7.05389087 -2.91648909 7.09274217 -4.875 7.125 C-5.96554688 7.14820312 -7.05609375 7.17140625 -8.1796875 7.1953125 C-11 7 -11 7 -13 5 C-12.67 4.01 -12.34 3.02 -12 2 C-11.01 3.485 -11.01 3.485 -10 5 C-7.56306689 5.36416047 -7.56306689 5.36416047 -4.875 5.1875 C-3.96492188 5.16042969 -3.05484375 5.13335937 -2.1171875 5.10546875 C-1.41851562 5.07066406 -0.71984375 5.03585938 0 5 C0 3.35 0 1.7 0 0 Z " fill="#7C9799" transform="translate(130,110)"/>
<path d="M0 0 C0.99 0.33 1.98 0.66 3 1 C2.34 1 1.68 1 1 1 C1.30035156 1.91523437 1.60070313 2.83046875 1.91015625 3.7734375 C2.29042969 4.96195313 2.67070313 6.15046875 3.0625 7.375 C3.44535156 8.55835938 3.82820313 9.74171875 4.22265625 10.9609375 C5 14 5 14 4 16 C2.02 12.535 2.02 12.535 0 9 C-0.66 9.66 -1.32 10.32 -2 11 C-1.40049704 7.31733897 -0.75241109 3.65456815 0 0 Z " fill="#74828A" transform="translate(57,48)"/>
<path d="M0 0 C0.99 0 1.98 0 3 0 C3.25 6.625 3.25 6.625 1 10 C-0.83691257 6.21812119 -1.15837626 4.05431692 0 0 Z " fill="#444758" transform="translate(97,102)"/>
<path d="M0 0 C3 1 3 1 4.75 3.875 C6 7 6 7 5 10 C0.07692308 5.69230769 0.07692308 5.69230769 -0.3125 2.1875 C-0.209375 1.465625 -0.10625 0.74375 0 0 Z " fill="#424A57" transform="translate(75,62)"/>
<path d="M0 0 C6.625 0.75 6.625 0.75 10 3 C8.02 3 6.04 3 4 3 C4 3.66 4 4.32 4 5 C2.68 4.34 1.36 3.68 0 3 C0 2.01 0 1.02 0 0 Z " fill="#637D7A" transform="translate(68,118)"/>
<path d="M0 0 C0.99 0 1.98 0 3 0 C2.38461538 6.52307692 2.38461538 6.52307692 0.4375 8.9375 C-0.036875 9.288125 -0.51125 9.63875 -1 10 C0.98 10.495 0.98 10.495 3 11 C1.35 11 -0.3 11 -2 11 C-1.40049704 7.31733897 -0.75241109 3.65456815 0 0 Z " fill="#7A8E93" transform="translate(41,113)"/>
<path d="M0 0 C2.46800047 1.15173355 4.04783565 2.04783565 6 4 C5.68134222 7.29279709 4.45484649 8.86535088 2 11 C1.34 10.67 0.68 10.34 0 10 C0.99 8.02 1.98 6.04 3 4 C2.01 2.68 1.02 1.36 0 0 Z " fill="#748D8C" transform="translate(109,70)"/>
<path d="M0 0 C0.33 0.66 0.66 1.32 1 2 C3.97 1.34 6.94 0.68 10 0 C10 0.66 10 1.32 10 2 C8.58603098 2.50757862 7.16868271 3.00574925 5.75 3.5 C4.56664063 3.91765625 4.56664063 3.91765625 3.359375 4.34375 C1 5 1 5 -3 5 C-1.125 1.125 -1.125 1.125 0 0 Z " fill="#7E9499" transform="translate(91,69)"/>
<path d="M0 0 C2.64 0 5.28 0 8 0 C7.67 0.99 7.34 1.98 7 3 C4.69 3 2.38 3 0 3 C0 2.01 0 1.02 0 0 Z " fill="#3B4653" transform="translate(94,81)"/>
<path d="M0 0 C7.42857143 1 7.42857143 1 11 2 C11 2.66 11 3.32 11 4 C7.7 3.67 4.4 3.34 1 3 C0.67 2.01 0.34 1.02 0 0 Z " fill="#414857" transform="translate(71,73)"/>
<path d="M0 0 C0.99 0.33 1.98 0.66 3 1 C1.8125 3.9375 1.8125 3.9375 0 7 C-2.6875 7.875 -2.6875 7.875 -5 8 C-4.34 7.67 -3.68 7.34 -3 7 C-3 6.01 -3 5.02 -3 4 C-2.01 4 -1.02 4 0 4 C0 2.68 0 1.36 0 0 Z " fill="#424B57" transform="translate(110,73)"/>
<path d="M0 0 C6.625 0.75 6.625 0.75 10 3 C8.35 3.66 6.7 4.32 5 5 C3.35 3.35 1.7 1.7 0 0 Z " fill="#4B5060" transform="translate(68,38)"/>
<path d="M0 0 C1.98 0.495 1.98 0.495 4 1 C4 2.32 4 3.64 4 5 C2.35 5.33 0.7 5.66 -1 6 C-0.67 4.02 -0.34 2.04 0 0 Z " fill="#53606A" transform="translate(109,57)"/>
<path d="M0 0 C1.32 0 2.64 0 4 0 C4 1.65 4 3.3 4 5 C3.01 5.495 3.01 5.495 2 6 C2 5.34 2 4.68 2 4 C1.34 4 0.68 4 0 4 C0 2.68 0 1.36 0 0 Z " fill="#4D5F64" transform="translate(37,102)"/>
<path d="M0 0 C5.53846154 -0.36923077 5.53846154 -0.36923077 7.875 1.5 C8.24625 1.995 8.6175 2.49 9 3 C8.01 3 7.02 3 6 3 C5.67 3.66 5.34 4.32 5 5 C5 4.01 5 3.02 5 2 C3.35 1.67 1.7 1.34 0 1 C0 0.67 0 0.34 0 0 Z " fill="#6C8183" transform="translate(57,101)"/>
<path d="" fill="#FFFFFF" transform="translate(0,0)"/>
<path d="" fill="#80BFBF" transform="translate(0,0)"/>
</svg>
